<svg width="18" height="18" viewBox="0 0 18 18" fill="none" xmlns="http://www.w3.org/2000/svg">
<path d="M9.11249 1.80005C5.08042 1.80005 1.8 5.08048 1.8 9.11255C1.8 13.1446 5.08042 16.425 9.11249 16.425C13.1446 16.425 16.425 13.1446 16.425 9.11255C16.425 5.08048 13.1446 1.80005 9.11249 1.80005ZM9.11249 13.0469C8.97343 13.0469 8.83749 13.0056 8.72186 12.9284C8.60623 12.8511 8.51611 12.7413 8.46289 12.6128C8.40967 12.4844 8.39575 12.343 8.42288 12.2066C8.45001 12.0702 8.51698 11.9449 8.61531 11.8466C8.71364 11.7482 8.83893 11.6813 8.97532 11.6541C9.11171 11.627 9.25309 11.6409 9.38157 11.6942C9.51005 11.7474 9.61986 11.8375 9.69712 11.9531C9.77438 12.0688 9.81562 12.2047 9.81562 12.3438C9.81562 12.5302 9.74154 12.7091 9.60968 12.8409C9.47782 12.9728 9.29897 13.0469 9.11249 13.0469ZM9.87609 5.9752L9.67429 10.2643C9.67429 10.4135 9.61503 10.5565 9.50954 10.662C9.40405 10.7675 9.26098 10.8268 9.11179 10.8268C8.96261 10.8268 8.81953 10.7675 8.71404 10.662C8.60855 10.5565 8.54929 10.4135 8.54929 10.2643L8.3475 5.97731V5.97556C8.34307 5.87252 8.35955 5.76966 8.39593 5.67316C8.43231 5.57666 8.48784 5.48853 8.55918 5.41406C8.63052 5.33959 8.7162 5.28032 8.81105 5.23984C8.9059 5.19935 9.00796 5.17848 9.11109 5.17848C9.21422 5.17848 9.31628 5.19935 9.41113 5.23984C9.50598 5.28032 9.59165 5.33959 9.66299 5.41406C9.73434 5.48853 9.78987 5.57666 9.82625 5.67316C9.86263 5.76966 9.8791 5.87252 9.87468 5.97556L9.87609 5.9752Z" fill="#2C8EEA"/>
</svg>
