<svg width="18" height="18" viewBox="0 0 18 18" fill="none" xmlns="http://www.w3.org/2000/svg">
<path d="M13.9219 15.1876H4.78125C3.50016 15.1876 2.30766 14.7456 1.42348 13.9427C0.505547 13.1091 0 11.9532 0 10.6876C0 9.40154 0.470742 8.29271 1.36125 7.4806C1.99793 6.89947 2.84555 6.48743 3.79336 6.28986C3.88072 6.27178 3.96253 6.23318 4.03204 6.17725C4.10154 6.12131 4.15674 6.04965 4.19309 5.96818C4.53054 5.20852 5.03601 4.53536 5.67141 3.99943C6.60094 3.22353 7.75195 2.81255 9 2.81255C10.4039 2.80644 11.7549 3.34742 12.7666 4.32075C13.6361 5.15782 14.2256 6.26419 14.4956 7.55513C14.5173 7.66099 14.569 7.75837 14.6446 7.83562C14.7201 7.91286 14.8164 7.96671 14.9217 7.99072C16.5234 8.34685 18 9.50736 18 11.5313C18 12.7052 17.5697 13.6681 16.7551 14.3167C16.0393 14.8863 15.0599 15.1876 13.9219 15.1876Z" fill="#2C8EEA"/>
</svg>
