<svg width="17" height="17" viewBox="0 0 17 17" fill="none" xmlns="http://www.w3.org/2000/svg">
<g clip-path="url(#clip0_5_178)">
<path d="M14.71 0H2.2917C1.02656 0 0.000915527 1.0256 0.000915527 2.29078V14.7091C0.000915527 15.9743 1.02652 16.9999 2.2917 16.9999H8.41632L8.42676 10.9251H6.84852C6.64342 10.9251 6.47694 10.7592 6.47615 10.5541L6.46859 8.59594C6.4678 8.38971 6.63477 8.22212 6.84099 8.22212H8.41637V6.33002C8.41637 4.13427 9.7574 2.93866 11.7162 2.93866H13.3235C13.5291 2.93866 13.6959 3.10538 13.6959 3.31106V4.96221C13.6959 5.16781 13.5292 5.33449 13.3237 5.33461L12.3373 5.33507C11.2721 5.33507 11.0658 5.84126 11.0658 6.58412V8.22216H13.4065C13.6295 8.22216 13.8025 8.41691 13.7763 8.6384L13.5442 10.5966C13.522 10.784 13.3631 10.9251 13.1744 10.9251H11.0762L11.0658 17H14.71C15.9752 17 17.0008 15.9744 17.0008 14.7093V2.29078C17.0007 1.0256 15.9751 0 14.71 0Z" fill="#475993"/>
</g>
<defs>
<clipPath id="clip0_5_178">
<rect width="17" height="17" fill="white"/>
</clipPath>
</defs>
</svg>
