<svg width="14" height="14" viewBox="0 0 14 14" fill="none" xmlns="http://www.w3.org/2000/svg">
<g clip-path="url(#clip0_5_123)">
<path d="M11.9487 2.05087C9.21387 -0.684057 4.78681 -0.684494 2.0515 2.05087C-0.683458 4.78581 -0.683868 9.21281 2.0515 11.9481C4.78638 14.6831 9.21343 14.6835 11.9487 11.9481C14.6837 9.21322 14.6841 4.78622 11.9487 2.05087ZM11.6562 10.9505C11.3293 10.6581 10.9795 10.3994 10.6108 10.1764C10.8545 9.33463 10.9989 8.40836 11.033 7.44549H13.0905C12.9975 8.74334 12.4988 9.96082 11.6562 10.9505ZM0.909683 7.44549H2.96723C3.00136 8.40836 3.14572 9.33463 3.3894 10.1764C3.02073 10.3994 2.67096 10.6581 2.34398 10.9505C1.50138 9.96082 1.00274 8.74334 0.909683 7.44549ZM2.344 3.04849C2.67099 3.34088 3.02076 3.59965 3.38943 3.82264C3.14575 4.66439 3.00138 5.59067 2.96726 6.55353H0.909683C1.00274 5.25571 1.50138 4.03824 2.344 3.04849ZM6.55416 3.91483C5.82681 3.86281 5.12549 3.68366 4.47532 3.38812C4.85345 2.41441 5.55053 1.24656 6.55416 0.957142V3.91483ZM6.55416 4.80846V6.55356H3.85958C3.89045 5.73905 4.00586 4.95692 4.19779 4.24129C4.93665 4.56428 5.73126 4.75717 6.55416 4.80846ZM6.55416 7.44549V9.1906C5.73126 9.24188 4.93665 9.43477 4.19779 9.75776C4.00586 9.04213 3.89045 8.26 3.85958 7.44549H6.55416ZM6.55416 10.0842V13.0419C5.55059 12.7525 4.85351 11.5847 4.47532 10.6109C5.12549 10.3154 5.82681 10.1362 6.55416 10.0842ZM7.44609 10.0842C8.17344 10.1362 8.87476 10.3154 9.52493 10.6109C9.14677 11.5847 8.44972 12.7525 7.44609 13.0419V10.0842ZM7.44609 9.1906V7.44549H10.1407C10.1098 8.26 9.99439 9.04213 9.80246 9.75776C9.0636 9.43477 8.26899 9.24188 7.44609 9.1906ZM7.44609 6.55356V4.80846C8.26899 4.75717 9.0636 4.56428 9.80246 4.24129C9.99439 4.95692 10.1098 5.73905 10.1407 6.55356H7.44609ZM7.44609 3.91483V0.957169C8.44972 1.24659 9.1468 2.41444 9.52493 3.38815C8.87476 3.68366 8.17344 3.86281 7.44609 3.91483ZM9.4493 1.40243C10.0202 1.65242 10.5528 1.9914 11.0302 2.41198C10.803 2.61236 10.5632 2.79404 10.3128 2.95653C10.0904 2.40594 9.80634 1.87088 9.4493 1.40243ZM3.68745 2.95653C3.43705 2.79404 3.19728 2.61236 2.96999 2.41198C3.44743 1.9914 3.98004 1.65242 4.55092 1.40243C4.19388 1.87094 3.90982 2.406 3.68745 2.95653ZM3.68748 11.0425C3.90982 11.5931 4.19394 12.1282 4.55095 12.5966C3.98007 12.3466 3.44746 12.0077 2.97002 11.5871C3.19728 11.3867 3.43708 11.205 3.68748 11.0425ZM10.3128 11.0425C10.5632 11.205 10.803 11.3867 11.0302 11.587C10.5528 12.0076 10.0202 12.3466 9.4493 12.5966C9.80631 12.1282 10.0904 11.5931 10.3128 11.0425ZM11.033 6.55356C10.9989 5.5907 10.8545 4.66439 10.6108 3.82267C10.9795 3.59967 11.3293 3.34091 11.6563 3.04852C12.4989 4.03824 12.9975 5.25571 13.0906 6.55356H11.033Z" fill="white"/>
</g>
<defs>
<clipPath id="clip0_5_123">
<rect width="14" height="14" fill="white"/>
</clipPath>
</defs>
</svg>
