<svg width="19" height="19" viewBox="0 0 19 19" fill="none" xmlns="http://www.w3.org/2000/svg">
<path d="M14.5974 18.75L4.18073 18.7599C1.88906 18.762 0.0125018 16.8891 0.0098976 14.5974L1.73636e-06 4.18073C-0.0020816 1.88906 1.87084 0.0125018 4.1625 0.0098976L14.5792 1.73636e-06C16.8708 -0.0020816 18.7474 1.87084 18.75 4.1625L18.7599 14.5792C18.7625 16.8714 16.8891 18.7479 14.5974 18.75Z" fill="url(#paint0_radial_5_512)"/>
<path d="M14.5974 18.75L4.18073 18.7599C1.88906 18.762 0.0125018 16.8891 0.0098976 14.5974L1.73636e-06 4.18073C-0.0020816 1.88906 1.87084 0.0125018 4.1625 0.0098976L14.5792 1.73636e-06C16.8708 -0.0020816 18.7474 1.87084 18.75 4.1625L18.7599 14.5792C18.7625 16.8714 16.8891 18.7479 14.5974 18.75Z" fill="url(#paint1_radial_5_512)"/>
<path d="M9.38021 13.026C7.37031 13.026 5.73438 11.3906 5.73438 9.38021C5.73438 7.36979 7.37031 5.73438 9.38021 5.73438C11.3901 5.73438 13.026 7.36979 13.026 9.38021C13.026 11.3906 11.3901 13.026 9.38021 13.026ZM9.38021 6.77604C7.94427 6.77604 6.77604 7.94427 6.77604 9.38021C6.77604 10.8161 7.94427 11.9844 9.38021 11.9844C10.8161 11.9844 11.9844 10.8161 11.9844 9.38021C11.9844 7.94427 10.8161 6.77604 9.38021 6.77604Z" fill="white"/>
<path d="M13.2871 6.25537C13.7186 6.25537 14.0684 5.90559 14.0684 5.47412C14.0684 5.04265 13.7186 4.69287 13.2871 4.69287C12.8556 4.69287 12.5059 5.04265 12.5059 5.47412C12.5059 5.90559 12.8556 6.25537 13.2871 6.25537Z" fill="white"/>
<path d="M12.5052 16.151H6.25521C4.24531 16.151 2.60938 14.5156 2.60938 12.5052V6.25521C2.60938 4.24479 4.24531 2.60938 6.25521 2.60938H12.5052C14.5151 2.60938 16.151 4.24479 16.151 6.25521V12.5052C16.151 14.5156 14.5151 16.151 12.5052 16.151ZM6.25521 3.65104C4.81927 3.65104 3.65104 4.81927 3.65104 6.25521V12.5052C3.65104 13.9411 4.81927 15.1094 6.25521 15.1094H12.5052C13.9411 15.1094 15.1094 13.9411 15.1094 12.5052V6.25521C15.1094 4.81927 13.9411 3.65104 12.5052 3.65104H6.25521Z" fill="white"/>
<defs>
<radialGradient id="paint0_radial_5_512" cx="0" cy="0" r="1" gradientUnits="userSpaceOnUse" gradientTransform="translate(6.97396 18.7734) scale(23.3849)">
<stop stop-color="#FFDD55"/>
<stop offset="0.328" stop-color="#FF543F"/>
<stop offset="0.348" stop-color="#FC5245"/>
<stop offset="0.504" stop-color="#E64771"/>
<stop offset="0.643" stop-color="#D53E91"/>
<stop offset="0.761" stop-color="#CC39A4"/>
<stop offset="0.841" stop-color="#C837AB"/>
</radialGradient>
<radialGradient id="paint1_radial_5_512" cx="0" cy="0" r="1" gradientUnits="userSpaceOnUse" gradientTransform="translate(3.01875 -0.234216) scale(15.5276 10.346)">
<stop stop-color="#4168C9"/>
<stop offset="0.999" stop-color="#4168C9" stop-opacity="0"/>
</radialGradient>
</defs>
</svg>
