<svg width="15" height="15" viewBox="0 0 15 15" fill="none" xmlns="http://www.w3.org/2000/svg">
<path d="M7.49982 0C4.74287 0 2.49981 2.24306 2.49981 5.00001C2.49981 5.82765 2.70673 6.64825 3.1001 7.3761L7.22639 14.8389C7.28132 14.9384 7.386 15 7.49982 15C7.61364 15 7.71832 14.9384 7.77325 14.8389L11.9011 7.37364C12.2929 6.64825 12.4998 5.82762 12.4998 4.99998C12.4998 2.24306 10.2568 0 7.49982 0ZM7.49982 7.5C6.12134 7.5 4.99983 6.37849 4.99983 5.00001C4.99983 3.62153 6.12134 2.50002 7.49982 2.50002C8.8783 2.50002 9.99981 3.62153 9.99981 5.00001C9.99981 6.37849 8.8783 7.5 7.49982 7.5Z" fill="white"/>
</svg>
