<svg width="17" height="17" viewBox="0 0 17 17" fill="none" xmlns="http://www.w3.org/2000/svg">
<g clip-path="url(#clip0_5_142)">
<path d="M16.9757 6.54954C16.9171 6.36918 16.7613 6.2378 16.5737 6.21057L11.3036 5.44471L8.94673 0.669212C8.86283 0.499179 8.68971 0.391602 8.50012 0.391602C8.31056 0.391602 8.13741 0.499179 8.05351 0.669212L5.69649 5.44468L0.42653 6.21057C0.238966 6.2378 0.0830444 6.36918 0.0245074 6.54947C-0.034096 6.72983 0.0147789 6.92776 0.150513 7.06004L3.96382 10.7773L3.06375 16.0261C3.03171 16.213 3.10854 16.4018 3.26191 16.5132C3.41527 16.6246 3.61854 16.6394 3.78641 16.5511L8.50009 14.0729L13.2136 16.5511C13.2865 16.5894 13.3661 16.6083 13.4454 16.6083C13.5486 16.6083 13.6514 16.5763 13.7381 16.5132C13.8915 16.4018 13.9683 16.2129 13.9363 16.0261L13.036 10.7773L16.8497 7.06004C16.9854 6.92772 17.0343 6.7298 16.9757 6.54954Z" fill="#FED42D"/>
<path d="M13.4446 16.1103L13.4446 16.1104L13.4446 16.1104L13.4446 16.1103M13.4446 16.1103L13.4446 16.1103M13.4446 16.1103L13.4446 16.1103L13.4446 16.1103M13.4446 16.1103L13.9355 16.0261L13.4446 16.1103M10.8545 5.66599L10.9708 5.90171L11.2309 5.93951L16.497 6.70479L12.6862 10.4192L12.4979 10.6027L12.5424 10.8618L13.4421 16.1067L8.99932 13.7709V1.90714L10.8545 5.66599ZM16.4999 6.70196L16.4999 6.70198C16.4999 6.70196 16.4999 6.70195 16.4999 6.70196ZM13.4427 16.1106L13.4427 16.1107L13.4445 16.1103L13.4446 16.1104L13.4446 16.1104L13.4427 16.1106Z" fill="white" stroke="#FED42D"/>
</g>
<defs>
<clipPath id="clip0_5_142">
<rect width="17" height="17" fill="white"/>
</clipPath>
</defs>
</svg>
