<svg width="17" height="17" viewBox="0 0 17 17" fill="none" xmlns="http://www.w3.org/2000/svg">
<g clip-path="url(#clip0_5_126)">
<path d="M16.9757 6.54949C16.9172 6.36917 16.7613 6.23775 16.5737 6.21053L11.3037 5.4447L8.94674 0.669212C8.86287 0.499212 8.68972 0.391602 8.50016 0.391602C8.31057 0.391602 8.13745 0.499212 8.05355 0.669212L5.69653 5.4447L0.426553 6.21053C0.23899 6.23775 0.0831015 6.36917 0.0245314 6.54946C-0.0340719 6.72979 0.0148029 6.92771 0.15057 7.06002L3.96387 10.7772L3.0638 16.0261C3.03173 16.2129 3.10856 16.4017 3.26192 16.5132C3.34868 16.5762 3.45145 16.6083 3.55471 16.6083C3.634 16.6083 3.71355 16.5894 3.7864 16.5511L8.50013 14.0729L13.2137 16.551C13.3815 16.6393 13.5848 16.6246 13.7382 16.5131C13.8915 16.4017 13.9684 16.2129 13.9364 16.026L13.036 10.7772L16.8497 7.05999C16.9855 6.92771 17.0344 6.72979 16.9757 6.54949Z" fill="#F5D14F"/>
</g>
<defs>
<clipPath id="clip0_5_126">
<rect width="17" height="17" fill="white"/>
</clipPath>
</defs>
</svg>
