<svg width="14" height="18" viewBox="0 0 14 18" fill="none" xmlns="http://www.w3.org/2000/svg">
<path d="M4.84914 17.4374C4.7549 17.4375 4.66178 17.417 4.57632 17.3772C4.49087 17.3375 4.41516 17.2795 4.35452 17.2073C4.29387 17.1352 4.24976 17.0506 4.22528 16.9596C4.20079 16.8686 4.19654 16.7734 4.21281 16.6805V16.6767L5.20106 11.2499H1.375C1.2688 11.2499 1.16477 11.2198 1.07495 11.1632C0.98513 11.1065 0.913183 11.0256 0.867433 10.9298C0.821683 10.8339 0.803999 10.7271 0.816426 10.6216C0.828853 10.5161 0.870884 10.4163 0.937657 10.3338L8.64285 0.808522C8.73056 0.697191 8.85231 0.617649 8.9895 0.582061C9.12669 0.546473 9.27176 0.556797 9.40252 0.611455C9.53328 0.666113 9.64255 0.762097 9.7136 0.884727C9.78466 1.00736 9.81359 1.14988 9.79598 1.29051C9.79598 1.30106 9.79317 1.31126 9.79141 1.3218L8.79965 6.74993H12.625C12.7312 6.74994 12.8352 6.78002 12.925 6.83668C13.0149 6.89334 13.0868 6.97427 13.1326 7.07011C13.1783 7.16595 13.196 7.27278 13.1836 7.37825C13.1711 7.48372 13.1291 7.58352 13.0623 7.6661L5.35609 17.1913C5.29554 17.2678 5.21851 17.3297 5.13074 17.3723C5.04297 17.4149 4.94671 17.4372 4.84914 17.4374Z" fill="#2C8EEA"/>
</svg>
