<svg width="12" height="16" viewBox="0 0 12 16" fill="none" xmlns="http://www.w3.org/2000/svg">
<path d="M10.8596 5.94547C10.4241 4.78915 9.78905 3.71822 8.98336 2.78141C7.58906 1.16738 5.75566 0.125 4.3125 0.125C4.22669 0.125064 4.14203 0.14476 4.065 0.182582C3.98797 0.220403 3.92062 0.275346 3.8681 0.343206C3.81557 0.411066 3.77927 0.490044 3.76197 0.574094C3.74467 0.658144 3.74683 0.745038 3.76828 0.828125C4.2559 2.69141 3.24516 4.24074 2.17535 5.88078C1.28906 7.23922 0.375 8.6423 0.375 10.25C0.375 13.3515 2.89852 15.875 6 15.875C9.10148 15.875 11.625 13.3515 11.625 10.25C11.625 8.72773 11.3677 7.27965 10.8596 5.94547ZM7.1366 13.7196C6.77344 14.1063 6.31816 14.1875 6 14.1875C5.68184 14.1875 5.22656 14.1063 4.8634 13.7196C4.50023 13.3329 4.3125 12.7194 4.3125 11.9375C4.3125 11.0537 4.62258 10.3808 4.92211 9.73039C5.09613 9.35281 5.27367 8.96855 5.37914 8.55723C5.39034 8.51248 5.41237 8.47118 5.44329 8.43696C5.47421 8.40274 5.51307 8.37665 5.55645 8.36098C5.59984 8.34532 5.6464 8.34056 5.69206 8.34713C5.73771 8.35371 5.78104 8.37141 5.81824 8.39867C6.13979 8.64745 6.42569 8.93915 6.66797 9.26562C7.30676 10.1094 7.6875 11.1085 7.6875 11.9375C7.6875 12.7194 7.49695 13.3357 7.1366 13.7196Z" fill="#2C8EEA"/>
</svg>
