<svg width="16" height="15" viewBox="0 0 16 15" fill="none" xmlns="http://www.w3.org/2000/svg">
<path d="M4.54707 6.82144C4.59771 6.76764 4.65845 6.72435 4.72583 6.69404C4.7932 6.66372 4.86589 6.64698 4.93974 6.64476C5.01358 6.64254 5.08714 6.65489 5.15622 6.6811C5.22529 6.70731 5.28852 6.74688 5.34231 6.79753C7.93086 9.23597 10.5282 10.7196 13.5847 11.4758C13.9971 10.3508 14.0336 9.11257 13.6775 7.9046C13.205 6.30183 12.1046 4.90542 10.4962 3.86655C9.06043 2.93913 7.62535 2.69761 6.23703 2.46417C4.48555 2.16956 2.83109 1.89112 1.25223 0.21944C1.07645 0.0345181 0.837032 -0.0396617 0.608165 0.0204556C0.346602 0.0907681 0.171173 0.297487 0.0871492 0.639206C-0.109726 1.43901 0.0168367 3.68058 0.570548 6.04695C1.45965 9.84875 2.87856 11.7725 3.9125 12.7171C5.24844 13.9367 6.99289 14.6121 8.72645 14.6121C9.05321 14.6126 9.37956 14.5886 9.70274 14.5404C11.1691 14.3182 12.3897 13.5816 13.0777 12.5101C9.9316 11.6916 7.24391 10.1353 4.56992 7.61773C4.51604 7.567 4.47271 7.50614 4.44239 7.43863C4.41207 7.37112 4.39537 7.2983 4.39325 7.22433C4.39113 7.15035 4.40362 7.07669 4.43002 7.00756C4.45641 6.93842 4.49619 6.87517 4.54707 6.82144ZM15.3077 11.8203C14.716 11.7293 14.143 11.615 13.585 11.4768C13.4703 11.79 13.3276 12.0921 13.1586 12.3796C13.1329 12.4236 13.1059 12.4672 13.0781 12.5101C13.7567 12.6857 14.4438 12.8266 15.1368 12.932C15.2106 12.9449 15.2862 12.943 15.3592 12.9264C15.4322 12.9098 15.5011 12.8787 15.562 12.8351C15.6228 12.7915 15.6743 12.7361 15.7135 12.6723C15.7527 12.6085 15.7788 12.5376 15.7902 12.4636C15.8016 12.3896 15.7981 12.314 15.7799 12.2414C15.7617 12.1688 15.7292 12.1005 15.6843 12.0406C15.6394 11.9807 15.583 11.9303 15.5184 11.8925C15.4538 11.8547 15.3823 11.8301 15.3081 11.8203H15.3077Z" fill="#2C8EEA"/>
</svg>
