<svg width="169" height="40" viewBox="0 0 169 40" fill="none" xmlns="http://www.w3.org/2000/svg">
<circle cx="19.9074" cy="19.9074" r="19.9074" fill="#2C8EEA"/>
<circle cx="20.0245" cy="16.264" r="12.0551" transform="rotate(3.27917 20.0245 16.264)" fill="white"/>
<path d="M10.2096 23.2221L19.4008 37.387L29.6864 23.5751L10.2096 23.2221Z" fill="white"/>
<path d="M19.8666 24.224C18.7573 24.224 17.8239 23.9787 17.0666 23.488C16.3093 22.9867 15.7759 22.3093 15.4666 21.456L17.3546 20.352C17.7919 21.4933 18.6506 22.064 19.9306 22.064C20.5493 22.064 21.0026 21.952 21.2906 21.728C21.5786 21.504 21.7226 21.2213 21.7226 20.88C21.7226 20.4853 21.5466 20.1813 21.1946 19.968C20.8426 19.744 20.2133 19.504 19.3066 19.248C18.8053 19.0987 18.3786 18.9493 18.0266 18.8C17.6853 18.6507 17.3386 18.4533 16.9866 18.208C16.6453 17.952 16.3839 17.632 16.2026 17.248C16.0213 16.864 15.9306 16.416 15.9306 15.904C15.9306 14.8907 16.2879 14.0853 17.0026 13.488C17.7279 12.88 18.5973 12.576 19.6106 12.576C20.5173 12.576 21.3119 12.8 21.9946 13.248C22.6879 13.6853 23.2266 14.2987 23.6106 15.088L21.7546 16.16C21.3066 15.2 20.5919 14.72 19.6106 14.72C19.1519 14.72 18.7893 14.8267 18.5226 15.04C18.2666 15.2427 18.1386 15.5093 18.1386 15.84C18.1386 16.192 18.2826 16.48 18.5706 16.704C18.8693 16.9173 19.4346 17.152 20.2666 17.408C20.6079 17.5147 20.8639 17.6 21.0346 17.664C21.2159 17.7173 21.4559 17.808 21.7546 17.936C22.0639 18.0533 22.2986 18.1653 22.4586 18.272C22.6293 18.3787 22.8213 18.5227 23.0346 18.704C23.2479 18.8853 23.4079 19.072 23.5146 19.264C23.6319 19.456 23.7279 19.6907 23.8026 19.968C23.8879 20.2347 23.9306 20.528 23.9306 20.848C23.9306 21.8827 23.5519 22.704 22.7946 23.312C22.0479 23.92 21.0719 24.224 19.8666 24.224Z" fill="#2C8EEA"/>
<path d="M54.0054 30.308C52.48 30.308 51.1967 29.9707 50.1554 29.296C49.114 28.6067 48.3807 27.6753 47.9554 26.502L50.5514 24.984C51.1527 26.5533 52.3334 27.338 54.0934 27.338C54.9441 27.338 55.5674 27.184 55.9634 26.876C56.3594 26.568 56.5574 26.1793 56.5574 25.71C56.5574 25.1673 56.3154 24.7493 55.8314 24.456C55.3474 24.148 54.482 23.818 53.2354 23.466C52.546 23.2607 51.9594 23.0553 51.4754 22.85C51.006 22.6447 50.5294 22.3733 50.0454 22.036C49.576 21.684 49.2167 21.244 48.9674 20.716C48.718 20.188 48.5934 19.572 48.5934 18.868C48.5934 17.4747 49.0847 16.3673 50.0674 15.546C51.0647 14.71 52.26 14.292 53.6534 14.292C54.9 14.292 55.9927 14.6 56.9314 15.216C57.8847 15.8173 58.6254 16.6607 59.1534 17.746L56.6014 19.22C55.9854 17.9 55.0027 17.24 53.6534 17.24C53.0227 17.24 52.524 17.3867 52.1574 17.68C51.8054 17.9587 51.6294 18.3253 51.6294 18.78C51.6294 19.264 51.8274 19.66 52.2234 19.968C52.634 20.2613 53.4114 20.584 54.5554 20.936C55.0247 21.0827 55.3767 21.2 55.6114 21.288C55.8607 21.3613 56.1907 21.486 56.6014 21.662C57.0267 21.8233 57.3494 21.9773 57.5694 22.124C57.804 22.2707 58.0681 22.4687 58.3614 22.718C58.6547 22.9673 58.8747 23.224 59.0214 23.488C59.1827 23.752 59.3147 24.0747 59.4174 24.456C59.5347 24.8227 59.5934 25.226 59.5934 25.666C59.5934 27.0887 59.0727 28.218 58.0314 29.054C57.0047 29.89 55.6627 30.308 54.0054 30.308ZM73.6076 18.692C74.8689 18.692 75.8736 19.1027 76.6216 19.924C77.3842 20.7453 77.7656 21.8453 77.7656 23.224V30H74.9276V23.422C74.9276 22.762 74.7662 22.2487 74.4436 21.882C74.1209 21.5153 73.6662 21.332 73.0796 21.332C72.4342 21.332 71.9282 21.5447 71.5616 21.97C71.2096 22.3953 71.0336 23.0113 71.0336 23.818V30H68.1956V23.422C68.1956 22.762 68.0342 22.2487 67.7116 21.882C67.3889 21.5153 66.9342 21.332 66.3476 21.332C65.7169 21.332 65.2109 21.5447 64.8296 21.97C64.4629 22.3953 64.2796 23.0113 64.2796 23.818V30H61.4416V19H64.2796V20.166C64.9396 19.1833 65.9589 18.692 67.3376 18.692C68.6869 18.692 69.6842 19.22 70.3296 20.276C71.0629 19.22 72.1556 18.692 73.6076 18.692ZM88.5359 19H91.3739V30H88.5359V28.702C87.6853 29.7727 86.4899 30.308 84.9499 30.308C83.4833 30.308 82.2219 29.7507 81.1659 28.636C80.1246 27.5067 79.6039 26.128 79.6039 24.5C79.6039 22.872 80.1246 21.5007 81.1659 20.386C82.2219 19.2567 83.4833 18.692 84.9499 18.692C86.4899 18.692 87.6853 19.2273 88.5359 20.298V19ZM83.2999 26.744C83.8719 27.316 84.5979 27.602 85.4779 27.602C86.3579 27.602 87.0839 27.316 87.6559 26.744C88.2426 26.1573 88.5359 25.4093 88.5359 24.5C88.5359 23.5907 88.2426 22.85 87.6559 22.278C87.0839 21.6913 86.3579 21.398 85.4779 21.398C84.5979 21.398 83.8719 21.6913 83.2999 22.278C82.7279 22.85 82.4419 23.5907 82.4419 24.5C82.4419 25.4093 82.7279 26.1573 83.2999 26.744ZM96.7854 20.892C97.0494 20.188 97.4821 19.66 98.0834 19.308C98.6994 18.956 99.3814 18.78 100.129 18.78V21.948C99.2641 21.8453 98.4867 22.0213 97.7974 22.476C97.1227 22.9307 96.7854 23.686 96.7854 24.742V30H93.9474V19H96.7854V20.892ZM108.382 21.728H105.896V26.304C105.896 26.6853 105.991 26.964 106.182 27.14C106.373 27.316 106.651 27.4187 107.018 27.448C107.385 27.4627 107.839 27.4553 108.382 27.426V30C106.431 30.22 105.053 30.0367 104.246 29.45C103.454 28.8633 103.058 27.8147 103.058 26.304V21.728H101.144V19H103.058V16.778L105.896 15.92V19H108.382V21.728ZM113.773 27.338H118.657V30H109.967V28.108L114.609 21.662H110.187V19H118.437V20.892L113.773 27.338ZM129.423 28.636C128.294 29.7507 126.915 30.308 125.287 30.308C123.659 30.308 122.28 29.7507 121.151 28.636C120.036 27.5067 119.479 26.128 119.479 24.5C119.479 22.872 120.036 21.5007 121.151 20.386C122.28 19.2567 123.659 18.692 125.287 18.692C126.915 18.692 128.294 19.2567 129.423 20.386C130.552 21.5007 131.117 22.872 131.117 24.5C131.117 26.128 130.552 27.5067 129.423 28.636ZM123.153 26.678C123.725 27.25 124.436 27.536 125.287 27.536C126.138 27.536 126.849 27.25 127.421 26.678C127.993 26.106 128.279 25.38 128.279 24.5C128.279 23.62 127.993 22.894 127.421 22.322C126.849 21.75 126.138 21.464 125.287 21.464C124.436 21.464 123.725 21.75 123.153 22.322C122.596 22.894 122.317 23.62 122.317 24.5C122.317 25.38 122.596 26.106 123.153 26.678ZM139.229 18.692C140.432 18.692 141.422 19.0953 142.199 19.902C142.991 20.7087 143.387 21.8233 143.387 23.246V30H140.549V23.598C140.549 22.8647 140.351 22.3073 139.955 21.926C139.559 21.53 139.031 21.332 138.371 21.332C137.638 21.332 137.051 21.5593 136.611 22.014C136.171 22.4687 135.951 23.1507 135.951 24.06V30H133.113V19H135.951V20.232C136.641 19.2053 137.733 18.692 139.229 18.692ZM148.209 25.666C148.59 27.0447 149.624 27.734 151.311 27.734C152.396 27.734 153.217 27.3673 153.775 26.634L156.063 27.954C154.977 29.5233 153.379 30.308 151.267 30.308C149.448 30.308 147.989 29.758 146.889 28.658C145.789 27.558 145.239 26.172 145.239 24.5C145.239 22.8427 145.781 21.464 146.867 20.364C147.952 19.2493 149.345 18.692 151.047 18.692C152.66 18.692 153.987 19.2493 155.029 20.364C156.085 21.4787 156.613 22.8573 156.613 24.5C156.613 24.8667 156.576 25.2553 156.503 25.666H148.209ZM148.165 23.466H153.775C153.613 22.718 153.276 22.1607 152.763 21.794C152.264 21.4273 151.692 21.244 151.047 21.244C150.284 21.244 149.653 21.442 149.155 21.838C148.656 22.2193 148.326 22.762 148.165 23.466ZM167.064 29.736C166.697 30.1027 166.257 30.286 165.744 30.286C165.231 30.286 164.791 30.1027 164.424 29.736C164.057 29.3693 163.874 28.9293 163.874 28.416C163.874 27.9027 164.057 27.4627 164.424 27.096C164.791 26.7293 165.231 26.546 165.744 26.546C166.257 26.546 166.697 26.7293 167.064 27.096C167.431 27.4627 167.614 27.9027 167.614 28.416C167.614 28.9293 167.431 29.3693 167.064 29.736Z" fill="#2C8EEA"/>
</svg>
