<svg width="23" height="22" viewBox="0 0 23 22" fill="none" xmlns="http://www.w3.org/2000/svg">
<g clip-path="url(#clip0_19_870)">
<path d="M10.9881 15.9259L16.1259 18.6292L15.1463 12.9086L19.3045 8.85784L13.5591 8.0229L10.9881 2.81483V0C11.4593 0 11.9305 0.24387 12.1744 0.735742L14.8735 6.20834L20.9124 7.08462C21.9953 7.24169 22.4293 8.57677 21.644 9.34144L17.275 13.5988L18.3083 19.6129C18.4943 20.6917 17.3576 21.5143 16.3904 21.0059L10.9881 18.1704V15.9259Z" fill="#FFC403"/>
</g>
<g clip-path="url(#clip1_19_870)">
<path d="M11.0568 15.9259L5.91903 18.6292L6.89864 12.9086L2.74045 8.85784L8.48586 8.0229L11.0568 2.81483V0C10.5856 0 10.1144 0.24387 9.87054 0.735742L7.17144 6.20834L1.13257 7.08462C0.0496203 7.24169 -0.384385 8.57677 0.400958 9.34144L4.76995 13.5988L3.7366 19.6129C3.5506 20.6917 4.68728 21.5143 5.65449 21.0059L11.0568 18.1704V15.9259Z" fill="#FFC403"/>
</g>
<defs>
<clipPath id="clip0_19_870">
<rect width="11.0576" height="21.1629" fill="white" transform="translate(11.0225)"/>
</clipPath>
<clipPath id="clip1_19_870">
<rect width="11.0576" height="21.1629" fill="white"/>
</clipPath>
</defs>
</svg>
