<svg width="18" height="18" viewBox="0 0 18 18" fill="none" xmlns="http://www.w3.org/2000/svg">
<path d="M9.11249 1.79999C5.08042 1.79999 1.79999 5.08042 1.79999 9.11249C1.79999 13.1446 5.08042 16.425 9.11249 16.425C13.1446 16.425 16.425 13.1446 16.425 9.11249C16.425 5.08042 13.1446 1.79999 9.11249 1.79999ZM9.11249 13.0468C8.97342 13.0468 8.83748 13.0056 8.72185 12.9283C8.60622 12.8511 8.5161 12.7413 8.46288 12.6128C8.40967 12.4843 8.39574 12.3429 8.42287 12.2065C8.45 12.0701 8.51697 11.9448 8.6153 11.8465C8.71364 11.7482 8.83892 11.6812 8.97531 11.6541C9.11171 11.627 9.25308 11.6409 9.38156 11.6941C9.51004 11.7473 9.61985 11.8374 9.69711 11.9531C9.77437 12.0687 9.81561 12.2046 9.81561 12.3437C9.81561 12.5302 9.74153 12.709 9.60967 12.8409C9.47781 12.9727 9.29897 13.0468 9.11249 13.0468ZM9.87608 5.97514L9.67428 10.2642C9.67428 10.4134 9.61502 10.5565 9.50953 10.662C9.40404 10.7674 9.26097 10.8267 9.11178 10.8267C8.9626 10.8267 8.81953 10.7674 8.71404 10.662C8.60855 10.5565 8.54928 10.4134 8.54928 10.2642L8.34749 5.97725V5.9755C8.34306 5.87246 8.35954 5.7696 8.39592 5.6731C8.4323 5.5766 8.48783 5.48846 8.55917 5.41399C8.63052 5.33952 8.71619 5.28026 8.81104 5.23978C8.90589 5.19929 9.00795 5.17842 9.11108 5.17842C9.21421 5.17842 9.31627 5.19929 9.41112 5.23978C9.50597 5.28026 9.59164 5.33952 9.66299 5.41399C9.73433 5.48846 9.78986 5.5766 9.82624 5.6731C9.86262 5.7696 9.8791 5.87246 9.87467 5.9755L9.87608 5.97514Z" fill="#2C8EEA"/>
</svg>
