<svg width="18" height="18" viewBox="0 0 18 18" fill="none" xmlns="http://www.w3.org/2000/svg">
<path d="M16.875 17.4375H1.6875C1.38913 17.4375 1.10298 17.319 0.892005 17.108C0.681026 16.897 0.5625 16.6109 0.5625 16.3125V1.125C0.5625 0.975816 0.621763 0.832742 0.727252 0.727252C0.832742 0.621763 0.975816 0.5625 1.125 0.5625C1.27418 0.5625 1.41726 0.621763 1.52275 0.727252C1.62824 0.832742 1.6875 0.975816 1.6875 1.125V16.3125H16.875C17.0242 16.3125 17.1673 16.3718 17.2727 16.4773C17.3782 16.5827 17.4375 16.7258 17.4375 16.875C17.4375 17.0242 17.3782 17.1673 17.2727 17.2727C17.1673 17.3782 17.0242 17.4375 16.875 17.4375Z" fill="#2C8EEA"/>
<path d="M5.48438 15.1875H4.07812C3.74246 15.1875 3.42054 15.0542 3.18319 14.8168C2.94584 14.5795 2.8125 14.2575 2.8125 13.9219V8.57812C2.8125 8.24246 2.94584 7.92054 3.18319 7.68319C3.42054 7.44584 3.74246 7.3125 4.07812 7.3125H5.48438C5.82004 7.3125 6.14196 7.44584 6.37931 7.68319C6.61666 7.92054 6.75 8.24246 6.75 8.57812V13.9219C6.75 14.2575 6.61666 14.5795 6.37931 14.8168C6.14196 15.0542 5.82004 15.1875 5.48438 15.1875ZM10.5469 15.1875H9.14062C8.80496 15.1875 8.48304 15.0542 8.24569 14.8168C8.00834 14.5795 7.875 14.2575 7.875 13.9219V6.89062C7.875 6.55496 8.00834 6.23304 8.24569 5.99569C8.48304 5.75834 8.80496 5.625 9.14062 5.625H10.5469C10.8825 5.625 11.2045 5.75834 11.4418 5.99569C11.6792 6.23304 11.8125 6.55496 11.8125 6.89062V13.9219C11.8125 14.2575 11.6792 14.5795 11.4418 14.8168C11.2045 15.0542 10.8825 15.1875 10.5469 15.1875ZM15.5967 15.1875H14.1905C13.8548 15.1875 13.5329 15.0542 13.2955 14.8168C13.0582 14.5795 12.9248 14.2575 12.9248 13.9219V4.64062C12.9248 4.30496 13.0582 3.98304 13.2955 3.74569C13.5329 3.50834 13.8548 3.375 14.1905 3.375H15.5967C15.9324 3.375 16.2543 3.50834 16.4917 3.74569C16.729 3.98304 16.8623 4.30496 16.8623 4.64062V13.9219C16.8623 14.2575 16.729 14.5795 16.4917 14.8168C16.2543 15.0542 15.9324 15.1875 15.5967 15.1875Z" fill="#2C8EEA"/>
</svg>
