<svg width="18" height="18" viewBox="0 0 18 18" fill="none" xmlns="http://www.w3.org/2000/svg">
<path d="M16.5073 4.23704C16.4668 4.15826 16.4082 4.09017 16.3364 4.0383C16.2646 3.98642 16.1816 3.95224 16.0941 3.93854C16.0066 3.92483 15.917 3.93199 15.8328 3.95942C15.7486 3.98686 15.672 4.0338 15.6094 4.09642L13.4494 6.25782C13.3434 6.36232 13.2005 6.42089 13.0516 6.42089C12.9027 6.42089 12.7598 6.36232 12.6538 6.25782L11.7201 5.32267C11.6678 5.27043 11.6264 5.20842 11.5981 5.14016C11.5698 5.07191 11.5553 4.99875 11.5553 4.92487C11.5553 4.85099 11.5698 4.77784 11.5981 4.70958C11.6264 4.64133 11.6678 4.57931 11.7201 4.52708L13.8709 2.37587C13.9354 2.3114 13.9832 2.23222 14.0103 2.14516C14.0374 2.05809 14.0429 1.96575 14.0264 1.87608C14.0098 1.78642 13.9717 1.70211 13.9154 1.63043C13.859 1.55876 13.7861 1.50185 13.7029 1.46462C12.0783 0.738294 10.0505 1.11728 8.77185 2.38642C7.68552 3.46501 7.36174 5.1504 7.88416 7.01052C7.91232 7.10971 7.91249 7.21477 7.88463 7.31405C7.85676 7.41333 7.80197 7.50296 7.72631 7.57302L1.87349 12.9185C1.64549 13.1232 1.46157 13.3723 1.33297 13.6504C1.20438 13.9285 1.13379 14.23 1.12552 14.5363C1.11725 14.8426 1.17146 15.1474 1.28487 15.432C1.39827 15.7167 1.56847 15.9753 1.7851 16.192C2.00173 16.4087 2.26024 16.5791 2.54486 16.6926C2.82948 16.8061 3.13425 16.8605 3.44057 16.8523C3.74689 16.8442 4.04834 16.7738 4.32653 16.6453C4.60473 16.5168 4.85383 16.333 5.05865 16.1051L10.4615 10.2393C10.5305 10.1646 10.6186 10.1101 10.7163 10.0818C10.814 10.0535 10.9176 10.0524 11.0159 10.0786C11.5455 10.2237 12.0917 10.299 12.6408 10.3025C13.815 10.3025 14.8454 9.92251 15.5886 9.1902C16.965 7.83423 17.1749 5.53431 16.5073 4.23704ZM3.49736 15.7201C3.26582 15.7454 3.03215 15.6982 2.82858 15.585C2.62502 15.4718 2.46161 15.2982 2.36089 15.0882C2.26018 14.8782 2.22714 14.6421 2.26632 14.4125C2.30551 14.1829 2.41499 13.9711 2.57965 13.8064C2.74432 13.6417 2.95605 13.5321 3.18564 13.4929C3.41522 13.4536 3.65133 13.4866 3.86138 13.5872C4.07143 13.6878 4.24506 13.8512 4.35832 14.0547C4.47158 14.2582 4.51888 14.4919 4.49369 14.7234C4.46597 14.9782 4.3521 15.2159 4.17092 15.3971C3.98975 15.5784 3.75212 15.6923 3.49736 15.7201Z" fill="#2C8EEA"/>
</svg>
