<svg width="10" height="10" viewBox="0 0 10 10" fill="none" xmlns="http://www.w3.org/2000/svg">
<path d="M4.6575 8.15375C4.69573 8.20926 4.74688 8.25466 4.80654 8.28602C4.86621 8.31737 4.9326 8.33376 5 8.33376C5.06741 8.33376 5.1338 8.31737 5.19347 8.28602C5.25313 8.25466 5.30428 8.20926 5.3425 8.15375L9.0925 2.73708C9.13591 2.6746 9.16136 2.60142 9.1661 2.5255C9.17084 2.44957 9.15468 2.3738 9.11937 2.30641C9.08407 2.23902 9.03097 2.1826 8.96585 2.14327C8.90073 2.10394 8.82608 2.08321 8.75 2.08333H1.25C1.17411 2.08364 1.09973 2.10464 1.03487 2.14406C0.970014 2.18349 0.91713 2.23984 0.881908 2.30708C0.846685 2.37431 0.830456 2.44987 0.834966 2.52563C0.839476 2.6014 0.864555 2.6745 0.907504 2.73708L4.6575 8.15375Z" fill="#646567"/>
</svg>
