<svg width="18" height="18" viewBox="0 0 18 18" fill="none" xmlns="http://www.w3.org/2000/svg">
<path d="M9 11.8125C10.2426 11.8125 11.25 10.8051 11.25 9.5625C11.25 8.31986 10.2426 7.3125 9 7.3125C7.75736 7.3125 6.75 8.31986 6.75 9.5625C6.75 10.8051 7.75736 11.8125 9 11.8125Z" fill="#2C8EEA"/>
<path d="M15.1875 5.0625H13.1133C13.0078 5.0625 12.877 4.9943 12.7751 4.88672L11.8631 3.44742C11.8487 3.42458 11.8326 3.40284 11.815 3.38238C11.5 3.015 11.0742 2.8125 10.6172 2.8125H7.38281C6.92578 2.8125 6.50004 3.015 6.18504 3.38238C6.1674 3.40284 6.1513 3.42458 6.13688 3.44742L5.22492 4.88883C5.14687 4.97391 5.03719 5.06461 4.92188 5.06461V4.78336C4.92188 4.63418 4.86261 4.4911 4.75712 4.38561C4.65163 4.28012 4.50856 4.22086 4.35938 4.22086H3.51562C3.36644 4.22086 3.22337 4.28012 3.11788 4.38561C3.01239 4.4911 2.95312 4.63418 2.95312 4.78336V5.06461H2.8125C2.36509 5.06507 1.93614 5.24301 1.61977 5.55938C1.3034 5.87575 1.12547 6.3047 1.125 6.75211V13.5C1.12547 13.9474 1.3034 14.3764 1.61977 14.6927C1.93614 15.0091 2.36509 15.187 2.8125 15.1875H15.1875C15.6349 15.187 16.0639 15.0091 16.3802 14.6927C16.6966 14.3764 16.8745 13.9474 16.875 13.5V6.75C16.8745 6.30259 16.6966 5.87364 16.3802 5.55727C16.0639 5.2409 15.6349 5.06297 15.1875 5.0625ZM9 12.9375C8.33249 12.9375 7.67997 12.7396 7.12495 12.3687C6.56993 11.9979 6.13735 11.4708 5.88191 10.8541C5.62646 10.2374 5.55962 9.55876 5.68985 8.90407C5.82008 8.24938 6.14151 7.64802 6.61351 7.17601C7.08552 6.70401 7.68688 6.38258 8.34157 6.25235C8.99626 6.12212 9.67486 6.18896 10.2916 6.44441C10.9083 6.69985 11.4354 7.13243 11.8062 7.68745C12.1771 8.24247 12.375 8.89499 12.375 9.5625C12.374 10.4573 12.0181 11.3151 11.3854 11.9479C10.7526 12.5806 9.89479 12.9365 9 12.9375Z" fill="#2C8EEA"/>
</svg>
