<svg width="18" height="18" viewBox="0 0 18 18" fill="none" xmlns="http://www.w3.org/2000/svg">
<path d="M6.84914 17.4375C6.7549 17.4376 6.66178 17.417 6.57632 17.3773C6.49087 17.3375 6.41516 17.2795 6.35452 17.2074C6.29387 17.1352 6.24976 17.0507 6.22528 16.9597C6.20079 16.8687 6.19654 16.7734 6.21281 16.6806V16.6767L7.20106 11.25H3.375C3.2688 11.25 3.16477 11.2199 3.07495 11.1632C2.98513 11.1066 2.91318 11.0257 2.86743 10.9298C2.82168 10.834 2.804 10.7271 2.81643 10.6217C2.82885 10.5162 2.87088 10.4164 2.93766 10.3338L10.6429 0.808583C10.7306 0.697252 10.8523 0.61771 10.9895 0.582122C11.1267 0.546534 11.2718 0.556859 11.4025 0.611517C11.5333 0.666175 11.6425 0.762158 11.7136 0.884788C11.7847 1.00742 11.8136 1.14995 11.796 1.29058C11.796 1.30112 11.7932 1.31132 11.7914 1.32186L10.7996 6.74999H14.625C14.7312 6.75 14.8352 6.78008 14.925 6.83674C15.0149 6.8934 15.0868 6.97433 15.1326 7.07017C15.1783 7.16601 15.196 7.27284 15.1836 7.37831C15.1711 7.48379 15.1291 7.58358 15.0623 7.66616L7.35609 17.1914C7.29554 17.2679 7.21851 17.3298 7.13074 17.3724C7.04297 17.415 6.94671 17.4372 6.84914 17.4375Z" fill="#2C8EEA"/>
</svg>
