<svg width="17" height="16" viewBox="0 0 17 16" fill="none" xmlns="http://www.w3.org/2000/svg">
<g clip-path="url(#clip0_3_1097)">
<path d="M8.80377 15.9905C10.1038 15.8167 11.2434 14.5397 11.9605 12.6538C10.9238 12.4353 9.86596 12.318 8.80377 12.304V15.9905Z" fill="#D5D5D5"/>
<path d="M10.8808 15.6906C10.9576 15.6697 11.0342 15.6486 11.1101 15.6254C11.1742 15.606 11.2374 15.5851 11.3006 15.5643C11.3754 15.54 11.4499 15.515 11.524 15.4884C11.5872 15.4658 11.6498 15.4418 11.7126 15.4178C11.785 15.3892 11.8572 15.3607 11.9287 15.3321C11.9912 15.3062 12.0532 15.2791 12.1152 15.2519C12.1854 15.2208 12.2553 15.1891 12.3245 15.1561C12.3854 15.1269 12.446 15.0972 12.5069 15.0666C12.575 15.0323 12.6426 14.9972 12.7098 14.9612C12.7706 14.9288 12.8292 14.8963 12.8884 14.8628C12.9543 14.8247 13.0199 14.7865 13.085 14.7484C13.1433 14.7135 13.2014 14.6781 13.2588 14.6415C13.3229 14.6008 13.3861 14.5585 13.449 14.5162C13.5056 14.4781 13.5618 14.4401 13.617 14.4019C13.6778 14.3578 13.7401 14.3121 13.8011 14.2663C13.8552 14.2257 13.9092 14.1853 13.9625 14.1436C14.0231 14.0961 14.0813 14.047 14.1402 13.9978C14.1918 13.9547 14.2437 13.9119 14.2942 13.8677C14.3522 13.8167 14.4087 13.7639 14.4652 13.7116C14.5142 13.6661 14.5637 13.6212 14.6117 13.5746C14.6206 13.566 14.629 13.5566 14.6382 13.5477C13.9755 13.2256 13.2775 12.9727 12.5564 12.7937C12.1814 13.9193 11.514 14.9394 10.6147 15.7613C10.6393 15.7553 10.6639 15.7504 10.6885 15.7444C10.7535 15.7272 10.8173 15.7083 10.8808 15.6906Z" fill="#D5D5D5"/>
<path d="M16.9998 8.29254H13.3569C13.3431 9.63125 13.1368 10.962 12.7435 12.2486C13.5455 12.4503 14.3194 12.7401 15.0493 13.1122C16.2477 11.7528 16.9336 10.0579 16.9998 8.29254Z" fill="#D5D5D5"/>
<path d="M8.80377 7.72063H12.7494C12.734 6.42925 12.5327 5.14583 12.1513 3.90527C11.0526 4.1411 9.93049 4.26704 8.80377 4.281V7.72063Z" fill="#D5D5D5"/>
<path d="M8.80377 0.022583V3.70907C9.86596 3.69496 10.9238 3.57782 11.9605 3.35931C11.2434 1.47341 10.1038 0.196414 8.80377 0.022583Z" fill="#D5D5D5"/>
<path d="M8.80377 11.7322C9.93049 11.7463 11.0526 11.8722 12.1513 12.108C12.5327 10.8675 12.734 9.58392 12.7494 8.29254H8.80377V11.7322Z" fill="#D5D5D5"/>
<path d="M15.0493 2.90094C14.3194 3.27304 13.5455 3.5629 12.7435 3.76451C13.1368 5.05114 13.3431 6.3819 13.3569 7.72061H16.9998C16.9335 5.95535 16.2475 4.26045 15.0493 2.90094Z" fill="#D5D5D5"/>
<path d="M14.6388 2.46714C14.6299 2.45862 14.6215 2.4494 14.6127 2.44061C14.5647 2.39397 14.5148 2.34901 14.4659 2.30364C14.4095 2.25128 14.3533 2.19836 14.2951 2.14754C14.2448 2.10342 14.1928 2.06167 14.1411 2.01769C14.0822 1.96854 14.0233 1.91897 13.9628 1.8715C13.9103 1.82975 13.8564 1.78982 13.803 1.74975C13.7422 1.7034 13.6799 1.65732 13.6173 1.61306C13.5624 1.5741 13.5068 1.53641 13.4509 1.49871C13.3874 1.4557 13.3236 1.41284 13.2589 1.37193C13.2021 1.33591 13.1444 1.30072 13.0867 1.26623C13.0209 1.22644 12.9554 1.18749 12.8885 1.14979C12.8299 1.1167 12.7707 1.08402 12.7113 1.05233C12.6434 1.01575 12.5753 0.980285 12.5066 0.945658C12.4458 0.917035 12.3851 0.885899 12.3243 0.857276C12.2544 0.824046 12.1839 0.792072 12.1117 0.760657C12.0509 0.73343 11.9892 0.706902 11.9266 0.681071C11.8546 0.651052 11.7819 0.623965 11.7094 0.595342C11.6468 0.571327 11.5845 0.547591 11.5213 0.524972C11.4475 0.498444 11.3728 0.473591 11.298 0.449296C11.2348 0.428353 11.1716 0.407549 11.1075 0.388001C11.0316 0.364824 10.9556 0.343741 10.8776 0.322518C10.8144 0.305065 10.7509 0.287333 10.6869 0.271416C10.6625 0.265133 10.6375 0.260246 10.6129 0.254242C11.5122 1.07607 12.1795 2.09602 12.5547 3.2218C13.2765 3.0428 13.9756 2.78981 14.6388 2.46714Z" fill="#D5D5D5"/>
<path d="M0 7.72061H3.64288C3.65668 6.3819 3.86304 5.05114 4.25616 3.76451C3.45433 3.56304 2.68039 3.27318 1.95051 2.90094C0.752135 4.26032 0.0661642 5.95535 0 7.72061Z" fill="#D5D5D5"/>
<path d="M8.19607 15.9905V12.304C7.13389 12.3181 6.07601 12.4353 5.03934 12.6538C5.75631 14.5397 6.89608 15.8167 8.19607 15.9905Z" fill="#D5D5D5"/>
<path d="M8.19662 8.29254H4.25095C4.26637 9.58392 4.46754 10.8675 4.84909 12.108C5.94778 11.8721 7.06975 11.7461 8.19662 11.7322V8.29254Z" fill="#D5D5D5"/>
<path d="M8.19607 0.022583C6.89608 0.196414 5.75631 1.47341 5.03934 3.35931C6.07601 3.57796 7.13389 3.6951 8.19607 3.70907V0.022583Z" fill="#D5D5D5"/>
<path d="M8.19662 4.281C7.0699 4.26704 5.94778 4.1411 4.84909 3.90527C4.46754 5.14583 4.26637 6.42925 4.25095 7.72063H8.19662V4.281Z" fill="#D5D5D5"/>
<path d="M6.3846 0.253967C6.35998 0.259971 6.33535 0.264858 6.31072 0.270862C6.24634 0.287058 6.18285 0.30507 6.11876 0.322523C6.04251 0.343466 5.96685 0.364549 5.8903 0.387448C5.82577 0.407134 5.76227 0.428078 5.69878 0.448882C5.62446 0.473595 5.54998 0.498169 5.4764 0.524418C5.41291 0.547317 5.3503 0.571053 5.2874 0.595347C5.21516 0.62397 5.14276 0.652593 5.07141 0.681076C5.0088 0.706906 4.94694 0.733993 4.88493 0.76122C4.81476 0.792356 4.74489 0.824051 4.67561 0.857002C4.61478 0.886183 4.55396 0.916063 4.49329 0.9465C4.42519 0.980848 4.35769 1.01603 4.29064 1.05206C4.22982 1.08403 4.17003 1.11684 4.11143 1.15035C4.04542 1.18777 3.98014 1.22645 3.91516 1.2647C3.85671 1.29989 3.79871 1.33535 3.7413 1.37193C3.67721 1.41256 3.61401 1.45487 3.55111 1.49718C3.49459 1.53529 3.43837 1.57327 3.38303 1.61167C3.32087 1.65565 3.26153 1.70145 3.19893 1.7471C3.14493 1.78773 3.09049 1.82808 3.03767 1.87011C2.97685 1.9173 2.91914 1.96617 2.86054 2.01504C2.80862 2.0586 2.75625 2.10091 2.70552 2.14601C2.64781 2.19669 2.59158 2.24933 2.53521 2.30155C2.48626 2.34707 2.43641 2.39202 2.38834 2.4388C2.37959 2.44745 2.37114 2.45695 2.36194 2.46575C3.02447 2.788 3.72261 3.04085 4.44374 3.21985C4.81877 2.09477 5.48575 1.07537 6.3846 0.253967Z" fill="#D5D5D5"/>
<path d="M2.53343 13.7095C2.58995 13.7618 2.64618 13.8148 2.70418 13.8657C2.75462 13.9097 2.80654 13.9514 2.85832 13.9954C2.91721 14.0447 2.97611 14.0941 3.03663 14.1416C3.08915 14.1831 3.1427 14.2232 3.19641 14.2634C3.25723 14.3097 3.31791 14.3558 3.38229 14.4003C3.43703 14.439 3.49266 14.4764 3.54829 14.5148C3.61179 14.5577 3.67587 14.6006 3.74056 14.6417C3.79737 14.6778 3.85508 14.713 3.91279 14.7476C3.97851 14.7872 4.04408 14.8262 4.11099 14.8639C4.16958 14.8971 4.22878 14.9296 4.28812 14.9615C4.35606 14.9981 4.42415 15.0335 4.49284 15.068C4.55351 15.0966 4.61434 15.1278 4.67516 15.1564C4.74503 15.1896 4.8155 15.2216 4.88775 15.2532C4.94857 15.2801 5.01028 15.3066 5.07289 15.3326C5.14484 15.3626 5.21738 15.3897 5.29007 15.4183C5.35268 15.4423 5.41498 15.4661 5.47818 15.4887C5.55191 15.5154 5.62668 15.5402 5.70145 15.5645C5.76464 15.5853 5.82784 15.6063 5.89193 15.6257C5.96788 15.6488 6.04384 15.6701 6.12187 15.6912C6.18507 15.7086 6.24856 15.7263 6.31235 15.7424C6.33698 15.7487 6.3619 15.7536 6.38653 15.7596C5.48723 14.9376 4.81995 13.9177 4.44477 12.7919C3.72364 12.971 3.02551 13.2239 2.36298 13.5463C2.37188 13.5548 2.38033 13.564 2.38923 13.5728C2.43478 13.6191 2.48388 13.6641 2.53343 13.7095Z" fill="#D5D5D5"/>
<path d="M1.95051 13.1122C2.68039 12.7401 3.45433 12.4503 4.25616 12.2486C3.86304 10.962 3.65668 9.63125 3.64288 8.29254H0C0.0663125 10.0578 0.752135 11.7527 1.95051 13.1122Z" fill="#D5D5D5"/>
</g>
<defs>
<clipPath id="clip0_3_1097">
<rect width="17" height="16" fill="white"/>
</clipPath>
</defs>
</svg>
