<svg width="44" height="43" viewBox="0 0 44 43" fill="none" xmlns="http://www.w3.org/2000/svg">
<path d="M22.5039 31C22.5039 31.5523 22.9516 32 23.5039 32C24.0562 32 24.5039 31.5523 24.5039 31H22.5039ZM39.5039 31C39.5039 31.5523 39.9516 32 40.5039 32C41.0562 32 41.5039 31.5523 41.5039 31H39.5039ZM24.5039 31V30H22.5039V31H24.5039ZM29.5039 25H34.5039V23H29.5039V25ZM39.5039 30V31H41.5039V30H39.5039ZM34.5039 25C37.2653 25 39.5039 27.2386 39.5039 30H41.5039C41.5039 26.134 38.3699 23 34.5039 23V25ZM24.5039 30C24.5039 27.2386 26.7425 25 29.5039 25V23C25.6379 23 22.5039 26.134 22.5039 30H24.5039Z" fill="white"/>
<circle cx="32.0039" cy="15.5" r="5.5" stroke="white" stroke-width="2"/>
<rect x="29.5039" y="21" width="5" height="3" stroke="white" stroke-width="2"/>
<path d="M39.1371 11.774C39.5646 11.4242 39.6276 10.7942 39.2779 10.3668C38.9281 9.93932 38.2981 9.87632 37.8707 10.226L39.1371 11.774ZM27.7968 11.7071C28.6776 12.5879 30.2673 13.6035 32.2691 13.9016C34.3144 14.2062 36.722 13.75 39.1371 11.774L37.8707 10.226C35.8858 11.85 34.0434 12.1438 32.5637 11.9234C31.0405 11.6965 29.8302 10.9121 29.211 10.2929L27.7968 11.7071Z" fill="white"/>
<circle cx="22.0039" cy="21.5" r="21.5" fill="#2C8EEA"/>
<path d="M10 18.0845H30V19.6722H10V18.0845ZM15 22.0536H30V23.6412H15V22.0536ZM21.25 26.0227H30V27.6103H21.25V26.0227Z" fill="white"/>
</svg>
