<svg width="13" height="13" viewBox="0 0 13 13" fill="none" xmlns="http://www.w3.org/2000/svg">
<g clip-path="url(#clip0_1_87)">
<path d="M6.49982 3.41563L1.86343 7.23785C1.86343 7.24325 1.86208 7.25118 1.85937 7.262C1.85671 7.27273 1.8553 7.28053 1.8553 7.28606V11.1565C1.8553 11.2962 1.90639 11.4173 2.00855 11.5193C2.11067 11.6213 2.23161 11.6727 2.37138 11.6727H5.46761V8.57627H7.53206V11.6728H10.6283C10.768 11.6728 10.8891 11.6216 10.9911 11.5193C11.0933 11.4174 11.1445 11.2962 11.1445 11.1565V7.28606C11.1445 7.2646 11.1416 7.24839 11.1364 7.23785L6.49982 3.41563Z" fill="#646567"/>
<path d="M12.9098 6.36696L11.144 4.89941V1.60951C11.144 1.5343 11.1198 1.47245 11.0713 1.42404C11.0231 1.37569 10.9613 1.35151 10.8859 1.35151H9.33777C9.26248 1.35151 9.20065 1.37569 9.15222 1.42404C9.1039 1.47245 9.07975 1.53433 9.07975 1.60951V3.18186L7.11232 1.53687C6.94049 1.3971 6.73618 1.32722 6.49962 1.32722C6.26309 1.32722 6.05881 1.3971 5.88681 1.53687L0.0890366 6.36696C0.035291 6.40988 0.00583399 6.46767 0.000354932 6.54025C-0.00509589 6.61278 0.0136854 6.67613 0.0567553 6.72985L0.556677 7.32656C0.599747 7.37491 0.656119 7.40448 0.72602 7.41529C0.790554 7.42072 0.855088 7.40185 0.919622 7.35886L6.49945 2.70612L12.0793 7.35884C12.1224 7.39634 12.1788 7.41507 12.2487 7.41507H12.2729C12.3427 7.40445 12.399 7.37468 12.4423 7.32644L12.9422 6.72982C12.9852 6.67599 13.0041 6.61275 12.9985 6.54014C12.993 6.46775 12.9634 6.40997 12.9098 6.36696Z" fill="#646567"/>
</g>
<defs>
<clipPath id="clip0_1_87">
<rect width="13" height="13" fill="white"/>
</clipPath>
</defs>
</svg>
