<svg width="19" height="19" viewBox="0 0 19 19" fill="none" xmlns="http://www.w3.org/2000/svg">
<path d="M5.14743 5.08398H4.90919L4.46399 7.31055H5.59263L5.14743 5.08398Z" fill="#646567"/>
<path d="M14.1526 9.53711C14.393 10.1828 14.7127 10.7054 15.0665 11.1501C15.4203 10.7054 15.7771 10.1827 16.0175 9.53711H14.1526Z" fill="#646567"/>
<path d="M17.3299 3.37695H10.4171L11.8585 14.9432C11.884 15.4162 11.7547 15.8616 11.4459 16.2103L9.00494 19H17.3299C18.2508 19 18.9999 18.2509 18.9999 17.3301V5.08398C18.9999 4.16315 18.2508 3.37695 17.3299 3.37695ZM17.3299 9.53711H17.1813C16.8646 10.5533 16.3623 11.3484 15.8403 11.9753C16.2492 12.3491 16.6865 12.6558 17.1212 12.9993C17.3609 13.1912 17.4001 13.5412 17.2076 13.7815C17.0161 14.0214 16.6647 14.0603 16.4254 13.8679C15.953 13.4951 15.5097 13.183 15.0663 12.7761C14.6229 13.183 14.2166 13.4951 13.7443 13.8679C13.505 14.0603 13.1536 14.0214 12.962 13.7815C12.7696 13.5412 12.8087 13.1912 13.0485 12.9993C13.4832 12.6558 13.8833 12.3491 14.2922 11.9753C13.7703 11.3485 13.3051 10.5533 12.9884 9.53711H12.8397C12.532 9.53711 12.2831 9.28814 12.2831 8.98047C12.2831 8.67279 12.532 8.42383 12.8397 8.42383H14.5096V7.86719C14.5096 7.55951 14.7586 7.31055 15.0663 7.31055C15.374 7.31055 15.6229 7.55951 15.6229 7.86719V8.42383H17.3299C17.6376 8.42383 17.8866 8.67279 17.8866 8.98047C17.8866 9.28814 17.6376 9.53711 17.3299 9.53711Z" fill="#646567"/>
<path d="M9.06077 1.46281C8.95694 0.62893 8.24429 0 7.40391 0H1.66992C0.74909 0 0 0.74909 0 1.66992V13.9902C0 14.9111 0.74909 15.6602 1.66992 15.6602C4.99752 15.6602 7.39133 15.6602 10.4482 15.6602C10.6106 15.4745 10.7467 15.3583 10.7524 15.116C10.7539 15.0553 9.06831 1.52308 9.06077 1.46281ZM6.82605 10.6395C6.53088 10.7003 6.23189 10.5086 6.17103 10.203L5.81526 8.42383H4.24142L3.88565 10.203C3.82587 10.5041 3.53556 10.702 3.23063 10.6395C2.92949 10.5792 2.73377 10.2862 2.79411 9.9845L3.90736 4.41809C3.95953 4.15825 4.18787 3.9707 4.45312 3.9707H5.60352C5.86877 3.9707 6.09711 4.15825 6.14928 4.41809L7.26256 9.9845C7.3229 10.2862 7.12723 10.5792 6.82605 10.6395Z" fill="#646567"/>
<path d="M6.50409 16.7734L6.59961 17.5372C6.66329 18.0487 7.00314 18.5702 7.56215 18.8307C8.6171 17.6694 7.97885 18.3719 9.43094 16.7734H6.50409Z" fill="#646567"/>
</svg>
