<svg width="18" height="18" viewBox="0 0 18 18" fill="none" xmlns="http://www.w3.org/2000/svg">
<path d="M5.6725 8.50781C5.72314 8.45402 5.78388 8.41073 5.85126 8.38041C5.91863 8.35009 5.99132 8.33335 6.06516 8.33113C6.13901 8.32891 6.21257 8.34126 6.28165 8.36747C6.35072 8.39368 6.41395 8.43325 6.46773 8.4839C9.05629 10.9223 11.6536 12.4059 14.7101 13.1622C15.1225 12.0371 15.1591 10.7989 14.8029 9.59097C14.3304 7.9882 13.23 6.59179 11.6216 5.55292C10.1859 4.6255 8.75078 4.38398 7.36246 4.15054C5.61098 3.85593 3.95652 3.57749 2.37765 1.90581C2.20187 1.72089 1.96246 1.64671 1.73359 1.70683C1.47203 1.77714 1.2966 1.98386 1.21258 2.32558C1.0157 3.12538 1.14226 5.36695 1.69597 7.73332C2.58508 11.5351 4.00398 13.4589 5.03793 14.4035C6.37387 15.6231 8.11832 16.2984 9.85187 16.2984C10.1786 16.299 10.505 16.275 10.8282 16.2267C12.2945 16.0045 13.5152 15.268 14.2032 14.1964C11.057 13.378 8.36933 11.8216 5.69535 9.3041C5.64147 9.25337 5.59813 9.19251 5.56782 9.125C5.5375 9.05749 5.5208 8.98467 5.51868 8.9107C5.51656 8.83672 5.52905 8.76306 5.55545 8.69393C5.58184 8.62479 5.62162 8.56154 5.6725 8.50781ZM16.4331 13.5067C15.8414 13.4156 15.2684 13.3014 14.7105 13.1632C14.5958 13.4764 14.453 13.7785 14.284 14.066C14.2584 14.11 14.2313 14.1536 14.2035 14.1964C14.8821 14.3721 15.5693 14.5129 16.2623 14.6183C16.336 14.6313 16.4116 14.6294 16.4846 14.6128C16.5576 14.5961 16.6265 14.5651 16.6874 14.5215C16.7482 14.4778 16.7998 14.4225 16.8389 14.3587C16.8781 14.2949 16.9042 14.2239 16.9156 14.1499C16.927 14.0759 16.9235 14.0004 16.9053 13.9278C16.8871 13.8552 16.8547 13.7869 16.8098 13.727C16.7648 13.6671 16.7084 13.6167 16.6438 13.5789C16.5792 13.5411 16.5077 13.5165 16.4335 13.5067H16.4331Z" fill="#2C8EEA"/>
</svg>
