<svg width="19" height="19" viewBox="0 0 19 19" fill="none" xmlns="http://www.w3.org/2000/svg" >
<g clip-path="url(#clip0_1_74)">
<path d="M18.7678 17.649L13.3648 12.2459C14.4114 10.9532 15.0415 9.31047 15.0415 7.52134C15.0415 3.37463 11.6674 0.000564575 7.52074 0.000564575C3.37403 0.000564575 0 3.37459 0 7.5213C0 11.668 3.37406 15.0421 7.52077 15.0421C9.30991 15.0421 10.9526 14.4119 12.2454 13.3653L17.6485 18.7684C17.8028 18.9228 18.0055 19.0004 18.2082 19.0004C18.4109 19.0004 18.6135 18.9228 18.7679 18.7684C19.0774 18.4589 19.0774 17.9585 18.7678 17.649ZM7.52077 13.4587C4.24646 13.4587 1.58333 10.7956 1.58333 7.5213C1.58333 4.24699 4.24646 1.58386 7.52077 1.58386C10.7951 1.58386 13.4582 4.24699 13.4582 7.5213C13.4582 10.7956 10.795 13.4587 7.52077 13.4587Z" fill="black"/>
</g>
<defs>
<clipPath id="clip0_1_74">
<rect width="19" height="19" fill="white"/>
</clipPath>
</defs>
</svg>
