<svg width="13" height="13" viewBox="0 0 13 13" fill="none" xmlns="http://www.w3.org/2000/svg">
<path d="M6.5 0C3.77 0 1.54883 2.22117 1.54883 4.95117C1.54883 6.03154 1.89008 7.05809 2.53652 7.91934L6.1948 12.8464C6.20395 12.8583 6.21791 12.8629 6.22807 12.8736C6.41088 13.0693 6.67469 13.0201 6.80494 12.8464C7.8584 11.4408 9.78936 8.81563 10.5318 7.82539C10.5318 7.82539 10.532 7.82463 10.5323 7.82412L10.5369 7.81803C11.1351 6.9776 11.4512 5.98635 11.4512 4.95117C11.4512 2.22117 9.23 0 6.5 0ZM6.5 7.62227C5.03014 7.62227 3.82891 6.42104 3.82891 4.95117C3.82891 3.48131 5.03014 2.28008 6.5 2.28008C7.96986 2.28008 9.17109 3.48131 9.17109 4.95117C9.17109 6.42104 7.96986 7.62227 6.5 7.62227Z" fill="#646567"/>
</svg>
