<svg width="13" height="13" viewBox="0 0 13 13" fill="none" xmlns="http://www.w3.org/2000/svg">
<path d="M12.4507 10.4346V12.5273C12.4507 12.7884 12.239 13 11.978 13H1.02192C0.760868 13 0.549225 12.7884 0.549225 12.5273V10.4346C0.549225 9.51148 1.09907 8.6927 1.95176 8.34303L4.02369 7.31405C4.13891 7.25689 4.27246 7.2492 4.3936 7.2925C4.51467 7.33592 4.61287 7.42693 4.66543 7.54435L5.58556 9.60028L5.73997 9.08334L5.55537 8.63219C5.49574 8.48641 5.51257 8.32052 5.60037 8.18968C5.68817 8.05896 5.83533 7.9805 5.99284 7.9805H7.007C7.1645 7.9805 7.31167 8.05896 7.39946 8.18968C7.48726 8.32046 7.50415 8.48635 7.44446 8.63219L7.25992 9.08334L7.41434 9.60028L8.33446 7.54435C8.38703 7.42693 8.48516 7.33592 8.6063 7.2925C8.72744 7.24914 8.86099 7.25695 8.9762 7.31405L11.0481 8.34303C11.9008 8.6927 12.4507 9.51141 12.4507 10.4346ZM8.93429 3.91156C8.93429 3.91156 8.91929 3.90734 8.93429 3.91156V3.91156ZM9.80689 4.53716C9.60149 5.3226 9.13616 5.55813 8.82992 5.62607C8.65596 5.96465 8.32961 6.54645 7.99746 6.85642C7.84519 6.99854 7.64981 7.11741 7.41673 7.20987C7.12461 7.32577 6.81609 7.38452 6.49995 7.38452C6.18381 7.38452 5.87529 7.32571 5.5831 7.20987C5.35003 7.11735 5.15464 6.99848 5.00244 6.85642C4.67028 6.54639 4.34387 5.96465 4.16998 5.62607C3.8638 5.55813 3.39841 5.3226 3.19307 4.53716C3.07212 4.07461 3.10735 3.69103 3.29788 3.39701C3.36254 3.29724 3.43698 3.22085 3.51135 3.16242C3.51419 3.06234 3.52181 2.94246 3.53675 2.81011C3.53738 2.80412 3.53725 2.79819 3.53807 2.79221C3.53902 2.78565 3.54028 2.77859 3.54123 2.77191C3.60261 2.26978 3.77676 1.59186 4.24794 1.03345C4.38244 0.874053 4.52854 0.739239 4.67949 0.625287C5.11027 0.255258 5.67871 0 6.41385 0C6.44209 0 6.47064 0.000630266 6.49938 0.00132356C6.49951 0.00132356 6.49982 0.00132356 6.49995 0.00132356C6.51047 0.00132356 6.56556 0.00176475 6.65373 0.00901281C8.5509 0.132986 9.25919 1.53905 9.37232 2.29883C9.45546 2.63722 9.48243 2.94498 9.48867 3.16242C9.56311 3.22085 9.63748 3.29724 9.70214 3.39701C9.89261 3.69103 9.92784 4.07461 9.80689 4.53716ZM8.54573 3.4047L8.541 3.40432C8.54132 3.40029 8.5567 3.18707 8.52109 2.8904C8.31121 2.90483 8.04492 2.91776 7.76155 2.91776C7.05786 2.91776 6.54274 2.84118 6.18677 2.68361C5.89584 2.55485 5.65816 2.41165 5.46946 2.2764C5.40228 2.39993 5.3199 2.52296 5.22 2.63086C4.96525 2.90597 4.674 3.08137 4.45688 3.18537C4.45278 3.31835 4.45852 3.40142 4.45877 3.40432C4.47925 3.63954 4.32326 3.852 4.09643 3.90532C4.07683 3.92089 4.03914 4.03648 4.10752 4.29798C4.173 4.54832 4.27895 4.70002 4.39215 4.70664C4.43381 4.6941 4.47427 4.68805 4.51316 4.68805C4.68207 4.68805 4.82186 4.8008 4.90266 4.97463C5.06042 5.31346 5.40228 5.93654 5.64739 6.16533C5.72188 6.23485 5.84088 6.3004 5.98836 6.35233C6.31824 6.46855 6.68127 6.46855 7.01116 6.35233C7.1587 6.3004 7.27776 6.23485 7.35232 6.16527C7.59838 5.93553 7.93967 5.31308 8.09698 4.97457C8.19625 4.76097 8.38463 4.63977 8.60668 4.70633C8.7222 4.69788 8.82714 4.54655 8.89219 4.29791C8.95282 4.06604 8.93498 3.97131 8.93423 3.91143C8.93404 3.89681 8.93498 3.89946 8.9353 3.90412C8.97507 3.6563 8.7962 3.42644 8.54573 3.4047Z" fill="#646567"/>
</svg>
