<svg width="17" height="17" viewBox="0 0 17 17" fill="none" xmlns="http://www.w3.org/2000/svg">
<g clip-path="url(#clip0_3_1130)">
<path d="M16.9757 6.54952C16.9171 6.3692 16.7613 6.23778 16.5737 6.21056L11.3036 5.44473L8.94673 0.669242C8.86286 0.499243 8.68971 0.391632 8.50015 0.391632C8.31056 0.391632 8.13744 0.499243 8.05354 0.669242L5.69652 5.44473L0.426544 6.21056C0.23898 6.23778 0.083092 6.3692 0.0245219 6.54949C-0.0340814 6.72982 0.0147934 6.92774 0.15056 7.06005L3.96386 10.7773L3.06379 16.0261C3.03172 16.213 3.10855 16.4018 3.26191 16.5132C3.34867 16.5762 3.45144 16.6083 3.5547 16.6083C3.63399 16.6083 3.71354 16.5894 3.78639 16.5511L8.50012 14.0729L13.2136 16.5511C13.3815 16.6393 13.5848 16.6246 13.7382 16.5132C13.8915 16.4017 13.9684 16.2129 13.9363 16.026L13.036 10.7773L16.8497 7.06002C16.9854 6.92774 17.0343 6.72982 16.9757 6.54952Z" fill="#F5D14F"/>
</g>
<defs>
<clipPath id="clip0_3_1130">
<rect width="17" height="17" fill="white"/>
</clipPath>
</defs>
</svg>
