<svg width="17" height="17" viewBox="0 0 17 17" fill="none" xmlns="http://www.w3.org/2000/svg">
<g clip-path="url(#clip0_3_1134)">
<path d="M16.9757 6.54959C16.9171 6.36923 16.7613 6.23784 16.5737 6.21062L11.3036 5.44476L8.94675 0.669258C8.86285 0.499225 8.68972 0.391647 8.50014 0.391647C8.31058 0.391647 8.13743 0.499225 8.05352 0.669258L5.6965 5.44472L0.426545 6.21062C0.238981 6.23784 0.0830597 6.36923 0.0245227 6.54952C-0.0340807 6.72988 0.0147942 6.9278 0.150528 7.06008L3.96383 10.7773L3.06376 16.0261C3.03172 16.213 3.10856 16.4018 3.26192 16.5133C3.41529 16.6247 3.61856 16.6394 3.78643 16.5512L8.5001 14.073L13.2136 16.5511C13.2865 16.5895 13.3661 16.6084 13.4454 16.6084C13.5486 16.6084 13.6514 16.5763 13.7382 16.5133C13.8915 16.4018 13.9683 16.213 13.9363 16.0261L13.036 10.7773L16.8497 7.06008C16.9854 6.92777 17.0343 6.72985 16.9757 6.54959Z" fill="#FED42D"/>
<path d="M13.4446 16.1104L13.4446 16.1104L13.4446 16.1104L13.4446 16.1104M13.4446 16.1104L13.4446 16.1104M13.4446 16.1104L13.4446 16.1104L13.4446 16.1104M13.4446 16.1104L13.9355 16.0262L13.4446 16.1104M10.8545 5.66604L10.9708 5.90175L11.2309 5.93956L16.497 6.70484L12.6862 10.4193L12.4979 10.6028L12.5424 10.8619L13.4421 16.1068L8.99933 13.771V1.90719L10.8545 5.66604ZM16.4999 6.70201L16.4999 6.70203C16.4999 6.702 16.4999 6.702 16.4999 6.70201ZM13.4427 16.1107L13.4427 16.1107L13.4445 16.1104L13.4446 16.1105L13.4446 16.1105L13.4427 16.1107Z" fill="white" stroke="#FED42D"/>
</g>
<defs>
<clipPath id="clip0_3_1134">
<rect width="17" height="17" fill="white"/>
</clipPath>
</defs>
</svg>
